<?xml version="1.0" standalone="no"?>
<!DOCTYPE svg PUBLIC "-//W3C//DTD SVG 20010904//EN"
 "http://www.w3.org/TR/2001/REC-SVG-20010904/DTD/svg10.dtd">
<svg version="1.0" xmlns="http://www.w3.org/2000/svg"
 width="866.000000pt" height="650.000000pt" viewBox="0 0 866.000000 650.000000"
 preserveAspectRatio="xMidYMid meet">
<metadata>
Created by potrace 1.16, written by Peter Selinger 2001-2019
</metadata>
<g transform="translate(0.000000,650.000000) scale(0.100000,-0.100000)"
fill="#000000" stroke="none">
<path d="M4185 5514 c-357 -36 -572 -93 -845 -226 -564 -274 -991 -770 -1175
-1368 -69 -222 -97 -422 -97 -675 0 -261 37 -487 119 -725 63 -185 241 -529
266 -513 6 3 7 1 3 -5 -8 -13 13 -43 130 -187 489 -601 1276 -907 2054 -799
720 101 1355 550 1692 1199 334 643 338 1406 12 2058 -60 119 -167 288 -245
385 -81 101 -305 322 -399 394 -384 291 -840 450 -1323 462 -84 2 -170 2 -192
0z m-221 -1229 l37 -75 72 7 c91 10 429 10 522 1 l70 -7 35 76 34 75 56 -6
c108 -13 450 -118 541 -167 49 -26 222 -340 303 -551 114 -297 159 -546 160
-883 0 -110 -3 -212 -7 -226 -12 -46 -260 -202 -460 -291 -123 -54 -278 -108
-290 -101 -12 7 -109 157 -137 212 -18 35 -19 45 -8 52 7 5 16 9 21 9 12 0
196 91 202 100 3 4 -7 15 -21 25 -25 16 -28 16 -77 -6 -413 -178 -892 -184
-1323 -18 -101 39 -106 40 -125 23 -10 -9 -19 -20 -19 -24 0 -4 52 -31 115
-60 63 -30 115 -58 115 -62 0 -15 -30 -69 -93 -166 -51 -80 -62 -92 -81 -86
-197 59 -469 192 -650 316 -86 59 -85 55 -85 298 -2 488 121 917 382 1336 l62
99 140 53 c148 57 375 120 436 121 36 1 37 -1 73 -74z"/>
<path d="M3785 3423 c-56 -16 -128 -81 -163 -148 -23 -43 -27 -62 -27 -135 0
-102 20 -154 85 -217 58 -56 114 -77 186 -70 138 14 236 133 236 287 0 61 -27
160 -43 160 -5 0 -9 6 -9 14 0 17 -58 69 -102 92 -32 17 -128 27 -163 17z"/>
<path d="M4733 3414 c-61 -22 -135 -105 -157 -178 -36 -113 -7 -236 74 -314
169 -162 423 -29 421 220 0 35 -7 83 -16 107 -20 59 -77 127 -128 152 -53 27
-140 33 -194 13z"/>
</g>
</svg>
