<?xml version="1.0" standalone="no"?>
<!DOCTYPE svg PUBLIC "-//W3C//DTD SVG 20010904//EN"
 "http://www.w3.org/TR/2001/REC-SVG-20010904/DTD/svg10.dtd">
<svg version="1.0" xmlns="http://www.w3.org/2000/svg"
 width="5000.000000pt" height="5000.000000pt" viewBox="0 0 5000.000000 5000.000000"
 preserveAspectRatio="xMidYMid meet">
<metadata>
Created by potrace 1.16, written by Peter Selinger 2001-2019
</metadata>
<g transform="translate(0.000000,5000.000000) scale(0.100000,-0.100000)"
fill="#000000" stroke="none">
<path d="M10045 37663 c-1199 -101 -2271 -802 -2899 -1897 -311 -541 -488
-1149 -526 -1807 -13 -238 -14 -18216 0 -18459 6 -96 17 -231 26 -300 190
-1520 1211 -2794 2599 -3243 237 -77 445 -122 710 -154 144 -17 742 -18 15025
-18 12240 0 14897 2 15000 13 647 68 1226 287 1748 661 659 471 1160 1155
1423 1941 122 367 184 685 209 1075 14 225 14 18291 0 18510 -26 394 -94 741
-217 1099 -369 1074 -1180 1942 -2188 2339 -280 110 -513 172 -850 224 -103
16 -998 17 -15065 19 -8225 0 -14973 -1 -14995 -3z m29760 -1893 c381 -36 733
-183 1030 -431 95 -80 268 -257 263 -270 -2 -6 -5155 -3661 -8068 -5723 -2363
-1673 -5407 -3833 -5510 -3910 -166 -125 -285 -200 -456 -287 -578 -294 -1257
-392 -1995 -289 -578 81 -1252 305 -1791 596 -104 56 -2289 1425 -11518 7219
-685 430 -1670 1049 -2190 1375 -520 326 -947 594 -949 597 -8 6 53 124 113
220 312 503 855 847 1424 902 132 13 29512 13 29647 1z m1762 -12605 l-3
-7720 -21 -100 c-79 -380 -215 -678 -431 -946 -82 -102 -280 -291 -379 -362
-227 -162 -491 -276 -766 -330 l-112 -21 -14790 -4 c-10664 -2 -14821 0
-14900 8 -238 24 -446 85 -665 196 -181 92 -301 178 -449 319 -359 344 -576
785 -631 1285 -8 66 -10 2681 -8 8586 l3 8492 5590 -3510 c3075 -1929 6186
-3883 6915 -4341 729 -457 1375 -860 1435 -895 448 -257 1031 -499 1580 -657
1378 -395 2674 -325 3780 204 277 133 579 318 835 511 66 50 1026 732 2133
1517 1106 784 2079 1473 2162 1532 82 58 2078 1473 4435 3143 l4285 3037 3
-1112 c1 -612 1 -4586 -1 -8832z"/>
</g>
</svg>
