<?xml version="1.0" standalone="no"?>
<!DOCTYPE svg PUBLIC "-//W3C//DTD SVG 20010904//EN"
 "http://www.w3.org/TR/2001/REC-SVG-20010904/DTD/svg10.dtd">
<svg version="1.0" xmlns="http://www.w3.org/2000/svg"
 width="512.000000pt" height="512.000000pt" viewBox="0 0 512.000000 512.000000"
 preserveAspectRatio="xMidYMid meet">
<metadata>
Created by potrace 1.16, written by Peter Selinger 2001-2019
</metadata>
<g transform="translate(0.000000,512.000000) scale(0.100000,-0.100000)"
fill="#000000" stroke="none">
<path d="M2305 5114 c-285 -41 -430 -74 -615 -141 -239 -86 -470 -212 -688
-375 -125 -93 -387 -355 -480 -480 -264 -353 -428 -738 -498 -1163 -21 -133
-30 -519 -15 -668 103 -992 793 -1847 1747 -2162 150 -50 370 -98 526 -114
143 -16 454 -13 598 4 554 69 1054 309 1459 700 340 328 573 720 696 1170 67
247 79 347 80 665 0 229 -4 307 -18 395 -90 543 -319 1006 -687 1388 -331 344
-723 578 -1175 702 -233 64 -340 77 -635 80 -146 2 -278 1 -295 -1z m440 -325
c949 -82 1746 -757 1979 -1677 52 -202 60 -280 60 -547 0 -266 -7 -337 -60
-546 -80 -321 -243 -638 -462 -899 -234 -279 -554 -508 -899 -644 -118 -46
-173 -48 -213 -8 l-28 29 -5 399 c-4 339 -7 408 -22 459 -21 75 -60 154 -91
188 -30 33 -30 37 2 37 53 0 276 51 369 84 134 48 234 108 326 194 203 190
291 437 291 812 0 122 -4 160 -25 242 -29 109 -96 249 -156 320 l-39 48 16 57
c26 91 23 305 -6 413 -13 47 -30 96 -39 109 -14 22 -19 23 -83 17 -125 -11
-270 -67 -439 -169 l-94 -57 -111 24 c-172 39 -277 50 -456 50 -178 0 -284
-11 -454 -49 l-109 -25 -81 49 c-175 105 -329 166 -453 177 -67 6 -72 5 -86
-17 -9 -13 -26 -62 -39 -109 -19 -71 -23 -109 -22 -225 0 -94 5 -157 16 -192
l15 -52 -35 -43 c-128 -162 -184 -337 -184 -573 0 -370 90 -618 291 -807 92
-86 192 -146 326 -194 93 -33 316 -84 369 -84 32 0 32 -5 1 -42 -38 -45 -66
-104 -90 -188 l-21 -74 -74 -25 c-102 -33 -249 -34 -330 -3 -83 33 -149 88
-210 177 -75 108 -163 195 -233 229 -98 48 -247 46 -247 -3 0 -36 12 -51 79
-99 122 -90 163 -142 246 -316 70 -145 136 -218 245 -270 112 -54 200 -70 344
-63 67 4 133 10 149 13 l27 6 0 -208 c0 -183 -3 -212 -18 -230 -43 -54 -100
-57 -220 -10 -676 261 -1188 839 -1367 1545 -41 161 -56 278 -62 467 -12 387
56 713 221 1049 127 259 264 446 475 647 457 438 1089 662 1716 607z"/>
</g>
</svg>
