<?xml version="1.0" standalone="no"?>
<!DOCTYPE svg PUBLIC "-//W3C//DTD SVG 20010904//EN"
 "http://www.w3.org/TR/2001/REC-SVG-20010904/DTD/svg10.dtd">
<svg version="1.0" xmlns="http://www.w3.org/2000/svg"
 width="199.000000pt" height="254.000000pt" viewBox="0 0 199.000000 254.000000"
 preserveAspectRatio="xMidYMid meet">
<metadata>
Created by potrace 1.16, written by Peter Selinger 2001-2019
</metadata>
<g transform="translate(0.000000,254.000000) scale(0.100000,-0.100000)"
fill="#000000" stroke="none">
<path d="M877 2530 c-167 -27 -330 -113 -448 -238 -87 -92 -140 -177 -176
-287 -23 -68 -26 -98 -27 -205 -1 -112 2 -134 27 -210 62 -185 202 -442 409
-747 123 -182 329 -462 340 -463 10 0 243 316 350 476 245 364 384 637 423
833 46 225 -63 501 -264 667 -76 63 -216 135 -311 158 -80 20 -245 28 -323 16z
m278 -155 c280 -71 485 -320 485 -588 0 -184 -193 -555 -547 -1049 -46 -65
-87 -118 -91 -118 -4 0 -53 64 -108 143 -329 463 -511 804 -530 994 -12 120
47 292 140 405 48 59 137 129 214 167 113 57 312 78 437 46z"/>
<path d="M895 2239 c-129 -26 -272 -134 -330 -248 -158 -313 71 -682 424 -681
42 0 96 5 120 11 130 30 257 132 318 257 34 68 38 84 41 172 6 141 -20 220
-105 327 -101 127 -301 196 -468 162z m250 -171 c64 -34 128 -100 157 -163 32
-70 32 -191 0 -256 -37 -75 -87 -125 -160 -161 -59 -29 -76 -33 -147 -33 -71
0 -88 4 -147 33 -126 62 -194 174 -185 307 9 140 97 250 237 296 14 5 63 7
110 5 68 -2 95 -8 135 -28z"/>
<path d="M104 498 l-100 -493 499 -3 c274 -1 720 -1 991 0 l492 3 -91 490 -91
490 -120 3 -121 3 -26 -50 c-15 -27 -27 -51 -27 -54 0 -4 41 -8 92 -9 l91 -3
72 -350 c40 -192 75 -365 79 -382 l8 -33 -857 0 -857 0 5 23 c3 12 33 164 67
337 33 173 65 338 71 367 l10 52 104 3 104 3 -30 48 -31 47 -117 0 -116 0
-101 -492z"/>
</g>
</svg>
