<?xml version="1.0" standalone="no"?>
<!DOCTYPE svg PUBLIC "-//W3C//DTD SVG 20010904//EN"
 "http://www.w3.org/TR/2001/REC-SVG-20010904/DTD/svg10.dtd">
<svg version="1.0" xmlns="http://www.w3.org/2000/svg"
 width="512.000000pt" height="512.000000pt" viewBox="0 0 512.000000 512.000000"
 preserveAspectRatio="xMidYMid meet">
<metadata>
Created by potrace 1.16, written by Peter Selinger 2001-2019
</metadata>
<g transform="translate(0.000000,512.000000) scale(0.100000,-0.100000)"
fill="#000000" stroke="none">
<path d="M4635 4671 c-33 -10 -172 -61 -310 -114 -246 -93 -1340 -508 -3145
-1192 -503 -190 -942 -359 -975 -374 -89 -42 -141 -85 -175 -143 -57 -100 -36
-224 50 -302 61 -55 120 -80 631 -266 l476 -174 51 -115 c298 -688 466 -1072
480 -1100 28 -56 116 -139 179 -169 50 -23 70 -27 153 -27 89 0 100 2 171 36
80 38 97 53 374 315 l160 151 527 -362 c597 -410 598 -411 751 -403 165 9 289
104 346 268 11 30 182 842 381 1804 352 1704 362 1752 358 1846 -3 88 -6 104
-38 166 -40 78 -102 132 -182 158 -66 21 -186 20 -263 -3z m173 -341 c2 -29
-120 -639 -353 -1765 -196 -946 -360 -1734 -366 -1751 -16 -51 -52 -78 -94
-71 -25 4 -279 173 -883 588 -466 320 -855 589 -864 598 -15 15 42 70 788 754
443 406 814 753 825 770 22 38 25 106 5 145 -28 54 -62 75 -125 80 l-59 4
-1196 -641 -1195 -641 -445 163 c-245 89 -446 164 -446 168 0 3 147 61 328
129 180 68 1155 438 2167 822 1357 515 1849 697 1875 695 34 -2 35 -3 38 -47z
m-2128 -1544 c0 -3 -187 -176 -415 -385 -228 -210 -420 -391 -427 -403 -9 -17
-14 -98 -18 -287 l-5 -264 -152 351 c-84 192 -153 354 -153 359 0 4 263 148
583 320 625 335 587 315 587 309z m-492 -1198 c26 -17 105 -72 176 -122 l130
-90 -51 -45 c-28 -25 -110 -102 -182 -170 l-131 -123 0 291 c0 160 3 291 6
291 3 0 26 -14 52 -32z"/>
</g>
</svg>
